<svg width="867" height="723" viewBox="0 0 867 723" fill="none" xmlns="http://www.w3.org/2000/svg">
<g clip-path="url(#clip0_50_2219)">
<path opacity="0.18" d="M244.129 52.6831C218.454 76.475 199.423 107.058 172.141 128.94C126.01 166.012 63.3975 173.383 9.14653 196.981C-26.7388 212.593 -60.7635 237.327 -76.64 273.106C-89.508 302.021 -87.8406 336.289 -74.5135 364.938C-68.1469 378.674 -65.3181 393.785 -66.2847 408.894C-67.2512 424.003 -71.9824 438.629 -80.0473 451.442C-99.8024 482.738 -111.716 518.492 -109.795 555.213C-106.822 611.69 -63.9412 667.406 -7.62413 672.602C11.708 674.39 31.1369 670.463 50.2758 666.959C165.87 645.813 288.219 640.351 398.17 681.785C428.304 693.143 457.315 707.945 488.645 715.413C525.243 724.137 563.4 722.481 601.013 720.777C659.711 718.119 728.195 709.903 758.172 659.346C799.724 589.263 733.535 501.769 742.948 420.859C748.155 376.151 776.344 336.833 782.289 292.258C788.741 243.804 765.772 192.583 725.295 165.178C669.087 127.128 591.359 136.36 533.326 101.137C487.412 73.2609 455.853 18.7897 401.723 3.96352C348.632 -10.5605 282.769 16.8563 244.129 52.6831Z" fill="#68E1FD"/>
<path d="M-0.145004 539.408C-5.82383 500.415 -19.3684 462.873 -24.8539 423.844C-30.3394 384.815 -26.5213 341.895 -1.52242 311.409C14.7891 291.556 38.2294 279.171 61.1501 267.559C81.5335 257.228 102.521 246.933 125.188 244.13C145.173 241.713 165.338 245.157 185.323 247.549C222.924 252.044 261.214 252.636 298.537 246.232C347.266 237.858 393.337 218.513 440.955 205.355C487.606 192.474 533.786 185.913 585.946 210.188C622.001 226.984 648.607 262.049 657.234 300.812C671.177 363.44 639.69 432.846 666.163 491.28C673.63 507.738 685.229 521.923 694.702 537.317C706.347 556.296 714.75 577.082 719.568 598.821C721.223 606.301 722.444 614.191 720.329 621.55C714.892 640.399 691.597 646.671 671.999 648.217C606.837 653.365 541.736 641.209 476.744 634.14C371.238 622.685 264.778 624.703 159.092 632.594C133.219 634.527 107.37 636.782 81.5455 639.36C60.703 641.402 21.1325 653.86 1.48616 647.927C-20.4196 641.294 -6.04131 626.927 -1.40159 606.301C3.58853 584.466 3.06897 561.448 -0.145004 539.408Z" fill="url(#paint0_linear_50_2219)"/>
<path d="M353.96 165.758C353.96 165.758 343.968 206.382 329.034 217.716C313.616 229.412 297.619 206.938 297.619 206.938L288.726 223.032C288.726 223.032 305.195 249.615 321.796 250.232C338.398 250.848 352.969 235.986 352.969 235.986L353.96 165.758Z" fill="#68E1FD"/>
<path d="M268.633 137.858L270.892 136.855L316.951 148.563L330.786 241.846H329.058L268.633 137.858Z" fill="#3F3D56"/>
<path opacity="0.05" d="M50.7592 641.197C50.7592 641.197 -49.7077 647.927 -64.1586 657.558C-78.6094 667.188 34.5564 669.303 215.131 663.877C395.706 658.452 534.74 663.877 633.19 673.81C731.639 683.742 865.176 681.821 867.024 657.497C868.873 633.174 623.258 632.884 623.258 632.884L50.7592 641.197Z" fill="#000405"/>
<path d="M675.346 447.575C675.346 447.575 671.975 475.632 650.298 478.387H555.112L541.567 322.562H641.853C649.948 322.562 666.537 331.286 669.848 343.635C670.293 345.921 670.588 348.234 670.73 350.559C672.905 374.52 675.346 447.575 675.346 447.575Z" fill="#68E1FD"/>
<path d="M670.754 350.583H578.926L551.668 323.831L550.411 322.562H641.877C649.972 322.562 666.562 331.286 669.872 343.635C670.318 345.929 670.613 348.25 670.754 350.583Z" fill="url(#paint1_linear_50_2219)"/>
<path d="M63.047 337.062L54.0817 333.159C52.915 332.652 51.9587 331.758 51.374 330.628C50.7892 329.497 50.6117 328.2 50.8713 326.955C51.1309 325.709 51.8118 324.591 52.7993 323.789C53.7868 322.986 55.0206 322.549 56.2929 322.55H541.567C547.561 322.494 553.491 323.79 558.915 326.342C564.34 328.894 569.119 332.637 572.897 337.291C576.046 341.113 578.13 345.698 578.938 350.583C581.125 365.167 579.784 428.689 579.18 452.541C578.854 465.495 569.308 476.647 556.453 478.254L555.075 478.387H85.0616L63.047 337.062Z" fill="#68E1FD"/>
<path d="M63.047 337.062L54.0817 333.159C52.915 332.652 51.9587 331.758 51.374 330.628C50.7892 329.497 50.6117 328.2 50.8713 326.955C51.1309 325.709 51.8118 324.591 52.7993 323.789C53.7868 322.986 55.0206 322.549 56.2929 322.55H541.567C547.561 322.494 553.491 323.79 558.915 326.342C564.34 328.894 569.119 332.637 572.897 337.291C576.046 341.113 578.13 345.698 578.938 350.583C581.125 365.167 579.784 428.689 579.18 452.541C578.854 465.495 569.308 476.647 556.453 478.254L555.075 478.387H85.0616L63.047 337.062Z" fill="#68E1FD"/>
<path d="M579.216 452.541C578.89 465.495 569.345 476.647 556.489 478.254L555.111 478.387H85.0978L63.047 337.062L54.0817 333.159C52.915 332.652 51.9587 331.758 51.374 330.628C50.7892 329.497 50.6117 328.2 50.8713 326.955C51.1309 325.709 51.8118 324.591 52.7993 323.789C53.7868 322.986 55.0206 322.549 56.2929 322.55H541.567C547.561 322.494 553.491 323.79 558.915 326.342C564.34 328.894 569.119 332.637 572.897 337.291C576.046 341.113 578.13 345.698 578.938 350.583C581.161 365.167 579.82 428.689 579.216 452.541Z" fill="url(#paint2_linear_50_2219)"/>
<path opacity="0.61" d="M38.7128 478.436H556.815C558.608 478.436 560.327 477.725 561.595 476.458C562.864 475.192 563.578 473.474 563.581 471.681C563.581 469.887 562.869 468.166 561.6 466.897C560.331 465.628 558.61 464.915 556.815 464.915H38.7128C36.9183 464.915 35.1972 465.628 33.9283 466.897C32.6594 468.166 31.9465 469.887 31.9465 471.681C31.9497 473.474 32.664 475.192 33.9326 476.458C35.2012 477.725 36.9204 478.436 38.7128 478.436Z" fill="url(#paint3_linear_50_2219)"/>
<path d="M38.7128 478.436H556.815C558.608 478.436 560.327 477.725 561.595 476.458C562.864 475.192 563.578 473.474 563.581 471.681C563.581 469.887 562.869 468.166 561.6 466.897C560.331 465.628 558.61 464.915 556.815 464.915H38.7128C36.9183 464.915 35.1972 465.628 33.9283 466.897C32.6594 468.166 31.9465 469.887 31.9465 471.681C31.9497 473.474 32.664 475.192 33.9326 476.458C35.2012 477.725 36.9204 478.436 38.7128 478.436ZM663.13 522.83V607.352C663.132 612.813 662.057 618.221 659.969 623.267C657.88 628.313 654.818 632.898 650.957 636.76C647.096 640.622 642.512 643.686 637.467 645.776C632.422 647.867 627.015 648.942 621.554 648.942H74.9365C69.4733 648.95 64.0624 647.88 59.0137 645.792C53.9651 643.705 49.378 640.642 45.5156 636.778C41.6531 632.914 38.5912 628.326 36.5053 623.276C34.4195 618.227 33.3507 612.815 33.3602 607.352V522.83C33.3516 515.148 35.4856 507.616 39.5223 501.08C40.404 499.631 41.3808 498.242 42.4463 496.923C46.3356 492.038 51.2771 488.094 56.9026 485.385C62.5281 482.675 68.6926 481.271 74.9365 481.275H621.554C627.016 481.275 632.424 482.352 637.47 484.443C642.516 486.534 647.1 489.598 650.961 493.462C654.822 497.325 657.884 501.912 659.972 506.959C662.06 512.006 663.133 517.416 663.13 522.878V522.83Z" fill="#68E1FD"/>
<path opacity="0.61" d="M450.271 648.942H74.9364C66.9648 648.945 59.1605 646.656 52.4532 642.348C45.7459 638.04 40.4185 631.894 37.1057 624.643H426.395C426.395 624.643 432.002 645.184 450.271 648.942Z" fill="url(#paint4_linear_50_2219)"/>
<path d="M450.271 481.227C433.017 484.079 428.196 501.031 428.196 501.031H39.5222L42.4462 496.875C46.3355 491.99 51.277 488.046 56.9025 485.336C62.528 482.627 68.6925 481.222 74.9364 481.227H450.271Z" fill="url(#paint5_linear_50_2219)"/>
<path opacity="0.61" d="M663.13 522.83V607.352C663.136 614.791 661.145 622.095 657.363 628.501C653.582 634.908 648.15 640.181 641.635 643.771H469.953C466.525 643.772 463.13 643.098 459.962 641.787C456.794 640.476 453.916 638.554 451.491 636.13C449.066 633.707 447.143 630.829 445.831 627.662C444.518 624.494 443.843 621.099 443.843 617.671V515.12C443.841 511.691 444.515 508.295 445.827 505.126C447.139 501.957 449.062 499.078 451.487 496.653C453.912 494.228 456.791 492.305 459.959 490.993C463.128 489.681 466.524 489.007 469.953 489.009H645.767C651.143 492.859 655.522 497.935 658.542 503.818C661.562 509.7 663.135 516.217 663.13 522.83Z" fill="url(#paint6_linear_50_2219)"/>
<path d="M663.13 522.83V607.352C663.131 608.91 663.046 610.467 662.876 612.016C662.804 612.693 662.707 613.357 662.598 614.022C662.146 616.917 661.376 619.754 660.303 622.48C660.049 623.169 659.771 623.833 659.457 624.498C658.109 627.51 656.406 630.35 654.382 632.956C653.851 633.633 653.295 634.31 652.703 634.962C649.551 638.536 645.807 641.541 641.635 643.843H494.626C490.913 643.85 487.241 643.061 483.858 641.529C480.476 639.997 477.46 637.757 475.016 634.962C474.451 634.321 473.918 633.651 473.421 632.956C471.578 630.407 470.222 627.54 469.422 624.498C469.24 623.845 469.095 623.169 468.975 622.48C468.672 620.907 468.523 619.309 468.528 617.707V515.12C468.523 513.292 468.718 511.469 469.108 509.683C469.23 509.005 469.395 508.335 469.603 507.677C470.495 504.614 471.954 501.744 473.904 499.219C474.432 498.517 475.001 497.848 475.608 497.213C478.042 494.607 480.987 492.531 484.259 491.113C487.531 489.695 491.06 488.966 494.626 488.972H645.767C649.005 491.292 651.89 494.068 654.334 497.213C654.841 497.866 655.337 498.53 655.808 499.219C657.628 501.851 659.129 504.691 660.279 507.677C660.544 508.342 660.798 509.018 661.004 509.683C661.934 512.425 662.558 515.262 662.864 518.141C662.949 518.806 663.009 519.483 663.045 520.159C663.106 521.005 663.13 521.935 663.13 522.83Z" fill="url(#paint7_linear_50_2219)"/>
<path d="M655.808 499.255H473.904C474.432 498.554 475.001 497.884 475.608 497.249H654.322C654.841 497.902 655.337 498.566 655.808 499.255ZM661.004 509.683H469.107C469.23 509.004 469.395 508.335 469.603 507.677H660.279C660.544 508.342 660.798 509.018 661.004 509.683ZM663.045 520.123H468.515V518.105H662.864C662.949 518.77 663.009 519.446 663.045 520.123Z" fill="white"/>
<path d="M663.142 528.545H468.528V530.551H663.142V528.545Z" fill="white"/>
<path d="M663.142 538.973H468.528V540.979H663.142V538.973Z" fill="white"/>
<path d="M663.142 549.413H468.528V551.419H663.142V549.413Z" fill="white"/>
<path d="M663.142 559.853H468.528V561.846H663.142V559.853Z" fill="white"/>
<path d="M663.142 570.28H468.528V572.274H663.142V570.28Z" fill="white"/>
<path d="M663.142 580.72H468.528V582.714H663.142V580.72Z" fill="white"/>
<path d="M663.142 591.148H468.528V593.142H663.142V591.148Z" fill="white"/>
<path d="M663.142 601.588H468.528V603.594H663.142V601.588Z" fill="white"/>
<path d="M662.876 612.016C662.804 612.693 662.707 613.357 662.599 614.022H468.528V612.016H662.876ZM660.363 622.444C660.11 623.132 659.832 623.797 659.517 624.462H469.458C469.277 623.809 469.132 623.132 469.011 622.444H660.363ZM654.382 632.884C653.851 633.56 653.295 634.237 652.703 634.889H475.016C474.451 634.248 473.918 633.579 473.421 632.884H654.382Z" fill="white"/>
<path d="M421.949 461.737H545.796C540.544 464.361 534.751 465.718 528.88 465.7H68.3876C60.7652 465.752 53.3129 463.447 47.0497 459.103C45.2769 457.879 43.6297 456.482 42.1321 454.934C41.6488 454.438 41.1776 453.919 40.7305 453.399C39.0446 451.428 37.608 449.257 36.4533 446.935C36.1995 446.427 35.9579 445.908 35.7404 445.4C34.8421 443.33 34.1932 441.159 33.8072 438.936C33.7226 438.428 33.638 437.921 33.5776 437.389C33.4319 436.206 33.3593 435.016 33.3601 433.824V368.986C33.3601 368.285 33.3601 367.596 33.4326 366.92C33.5051 366.243 33.5172 365.892 33.5776 365.385C33.8464 363.177 34.3694 361.008 35.1363 358.92C35.3296 358.401 35.535 357.893 35.7525 357.374C36.7384 355.076 38.0046 352.909 39.5222 350.921C39.921 350.402 40.3318 349.882 40.7305 349.375C41.6226 348.333 42.579 347.348 43.5941 346.426C50.4047 340.327 59.2455 336.988 68.3876 337.062H528.88C536.117 337.054 543.2 339.153 549.263 343.103H421.949C420.01 343.1 418.079 343.335 416.198 343.804C412.336 344.726 408.791 346.661 405.927 349.411C405.414 349.894 404.934 350.41 404.49 350.958C402.873 352.852 401.642 355.044 400.865 357.41C400.694 357.917 400.553 358.433 400.442 358.957C400.115 360.322 399.953 361.722 399.959 363.125V441.751C399.964 442.969 400.089 444.183 400.333 445.376C400.431 445.895 400.56 446.407 400.72 446.911C401.409 449.263 402.55 451.459 404.079 453.375C404.496 453.912 404.944 454.424 405.42 454.91C407.495 457.058 409.992 458.753 412.754 459.888C415.664 461.116 418.791 461.745 421.949 461.737Z" fill="#68E1FD"/>
<path d="M563.896 369.457V433.945C563.896 434.32 563.896 434.694 563.896 435.057C563.896 435.419 563.896 435.806 563.823 436.169C563.751 436.531 563.763 436.906 563.727 437.268C563.69 437.631 563.63 437.945 563.594 438.271C563.557 438.597 563.509 438.791 563.461 439.044C563.447 439.175 563.423 439.304 563.388 439.431C563.328 439.781 563.255 440.144 563.171 440.494C563.086 440.845 563.062 440.954 562.989 441.183C562.917 441.413 562.881 441.63 562.808 441.86C562.736 442.089 562.675 442.343 562.603 442.585L562.349 443.322C562.349 443.527 562.228 443.721 562.156 443.914C562.083 444.107 561.962 444.433 561.854 444.687L561.528 445.473C561.476 445.619 561.411 445.76 561.334 445.896C561.258 446.098 561.169 446.296 561.068 446.488C560.996 446.657 560.899 446.826 560.815 446.995C560.73 447.164 560.561 447.515 560.416 447.756C560.271 447.998 560.005 448.542 559.776 448.965L559.401 449.569C559.063 450.125 558.712 450.656 558.338 451.176C558.144 451.454 557.951 451.708 557.758 451.961C557.371 452.481 556.96 452.976 556.549 453.472C556.139 453.967 555.631 454.511 555.136 455.006C554.145 456.018 553.092 456.967 551.982 457.846C551.96 457.876 551.931 457.901 551.898 457.918C551.535 458.208 551.173 458.474 550.798 458.752L549.59 459.586L548.382 460.359C547.995 460.601 547.608 460.818 547.173 461.048L545.784 461.785H421.949C418.793 461.796 415.667 461.175 412.754 459.96C409.996 458.829 407.499 457.143 405.42 455.006C404.944 454.521 404.497 454.008 404.079 453.472C402.549 451.57 401.407 449.386 400.72 447.043C400.56 446.544 400.431 446.036 400.333 445.521C400.088 444.328 399.963 443.114 399.959 441.896V363.572C399.953 362.177 400.116 360.785 400.442 359.428C400.553 358.909 400.694 358.396 400.865 357.893C401.643 355.538 402.874 353.359 404.49 351.477C404.934 350.93 405.414 350.413 405.928 349.93C408.799 347.197 412.342 345.271 416.198 344.348C418.08 343.889 420.011 343.657 421.949 343.659H549.264C549.819 344.022 550.375 344.396 550.907 344.795L551.523 345.254C552.364 345.879 553.17 346.549 553.94 347.26L554.604 347.888L555.087 348.372L555.74 349.048L556.392 349.773L556.525 349.93L556.622 350.051C557.009 350.51 557.395 350.994 557.758 351.477C557.951 351.719 558.132 351.973 558.314 352.214C558.332 352.251 558.356 352.283 558.386 352.311C558.708 352.778 559.022 353.249 559.328 353.725L559.848 354.57C560.162 355.102 560.464 355.658 560.742 356.202C560.875 356.492 561.02 356.758 561.153 357.035C561.286 357.313 561.419 357.615 561.528 357.893C561.636 358.171 561.757 358.401 561.854 358.667C561.95 358.933 562.059 359.174 562.144 359.428C562.228 359.682 562.325 359.935 562.41 360.189C562.777 361.235 563.071 362.305 563.292 363.391C563.33 363.53 563.358 363.671 563.376 363.814C563.376 364.068 563.473 364.322 563.521 364.575C563.569 364.829 563.654 365.433 563.714 365.856C563.775 366.279 563.835 366.871 563.859 367.391C563.859 367.657 563.859 367.935 563.859 368.212C563.859 368.49 563.896 369.034 563.896 369.457Z" fill="url(#paint8_linear_50_2219)"/>
<path d="M412.754 459.9C410.023 460.561 407.204 461.173 404.296 461.737H75.9755C66.2712 461.793 56.5842 460.911 47.0497 459.103C45.2769 457.879 43.6297 456.482 42.1321 454.934C41.6488 454.438 41.1776 453.919 40.7305 453.399C39.0446 451.428 37.608 449.257 36.4533 446.935C36.1995 446.427 35.9579 445.908 35.7404 445.4C34.8421 443.33 34.1932 441.159 33.8072 438.936C33.7226 438.428 33.638 437.921 33.5776 437.389C33.4319 436.206 33.3593 435.016 33.3601 433.824V368.986C33.3601 368.285 33.3601 367.596 33.4326 366.92C33.5051 366.243 33.5172 365.893 33.5776 365.385C33.8464 363.177 34.3694 361.008 35.1363 358.92C35.3296 358.401 35.535 357.893 35.7525 357.374C36.7384 355.076 38.0046 352.909 39.5222 350.921C39.921 350.402 40.3318 349.882 40.7305 349.375C41.6226 348.333 42.579 347.349 43.5941 346.426C54.2327 344.13 65.0923 343.016 75.9755 343.104H413.491L416.198 343.804C412.336 344.726 408.791 346.661 405.927 349.411C405.414 349.894 404.934 350.41 404.49 350.958C402.873 352.852 401.642 355.044 400.865 357.41C400.694 357.917 400.553 358.433 400.442 358.957C400.115 360.322 399.953 361.722 399.959 363.125V441.751C399.964 442.969 400.089 444.183 400.333 445.376C400.431 445.895 400.56 446.407 400.72 446.911C401.409 449.263 402.55 451.459 404.079 453.375C404.496 453.912 404.944 454.424 405.42 454.91C407.493 457.062 409.991 458.762 412.754 459.9Z" fill="#68E1FD"/>
<path d="M412.754 459.9C410.023 460.561 407.204 461.173 404.296 461.737H75.9755C66.2712 461.793 56.5842 460.911 47.0497 459.103C45.2769 457.879 43.6297 456.482 42.1321 454.934C41.6488 454.438 41.1776 453.919 40.7305 453.399C39.0446 451.428 37.608 449.257 36.4533 446.935C36.1995 446.427 35.9579 445.908 35.7404 445.4C34.8421 443.33 34.1932 441.159 33.8072 438.936C33.7226 438.428 33.638 437.921 33.5776 437.389C33.4319 436.206 33.3593 435.016 33.3601 433.824V368.986C33.3601 368.285 33.3601 367.596 33.4326 366.92C33.5051 366.243 33.5172 365.893 33.5776 365.385C33.8464 363.177 34.3694 361.008 35.1363 358.92C35.3296 358.401 35.535 357.893 35.7525 357.374C36.7384 355.076 38.0046 352.909 39.5222 350.921C39.921 350.402 40.3318 349.882 40.7305 349.375C41.6226 348.333 42.579 347.349 43.5941 346.426C54.2327 344.13 65.0923 343.016 75.9755 343.104H413.491L416.198 343.804C412.336 344.726 408.791 346.661 405.927 349.411C405.414 349.894 404.934 350.41 404.49 350.958C402.873 352.852 401.642 355.044 400.865 357.41C400.694 357.917 400.553 358.433 400.442 358.957C400.115 360.322 399.953 361.722 399.959 363.125V441.751C399.964 442.969 400.089 444.183 400.333 445.376C400.431 445.895 400.56 446.407 400.72 446.911C401.409 449.263 402.55 451.459 404.079 453.375C404.496 453.912 404.944 454.424 405.42 454.91C407.493 457.062 409.991 458.762 412.754 459.9Z" fill="url(#paint9_linear_50_2219)"/>
<path d="M555.112 466.546C554.14 467.67 553.086 468.72 551.958 469.687C553.077 468.711 554.131 467.662 555.112 466.546Z" fill="url(#paint10_linear_50_2219)"/>
<path d="M558.277 353.108C558.096 352.831 557.915 352.553 557.721 352.287C557.359 351.755 556.972 351.223 556.586 350.716C557.19 351.489 557.758 352.287 558.277 353.108Z" fill="url(#paint11_linear_50_2219)"/>
<path d="M562.107 361.071C562.204 361.349 562.289 361.627 562.373 361.905C562.216 361.337 562.023 360.781 561.817 360.225C561.926 360.503 562.023 360.781 562.107 361.071Z" fill="url(#paint12_linear_50_2219)"/>
<path d="M563.896 369.457V433.945C563.896 434.561 563.896 435.154 563.896 435.782C563.896 436.41 563.835 436.712 563.775 437.184C563.558 439.173 563.128 441.134 562.494 443.032C562.349 443.503 562.192 443.962 562.011 444.409C558.964 451.991 553.206 458.167 545.856 461.737H401.155C389.991 461.737 380.772 454.197 379.406 444.433C379.321 443.971 379.272 443.502 379.261 443.032C379.217 442.631 379.197 442.227 379.201 441.824V363.572C379.201 352.565 389.036 343.659 401.191 343.659H549.264C558.132 349.411 563.896 358.812 563.896 369.457Z" fill="#68E1FD"/>
<path d="M557.721 350.921H404.49C404.934 350.374 405.414 349.857 405.928 349.375H556.453C556.912 349.882 557.323 350.353 557.721 350.921ZM562.107 358.92H400.442C400.552 358.397 400.693 357.88 400.865 357.374H561.503C561.721 357.881 561.926 358.401 562.107 358.92ZM563.835 366.92H399.959V365.373H563.702C563.702 365.88 563.799 366.4 563.835 366.92Z" fill="white"/>
<path d="M563.908 373.372H399.959V374.919H563.908V373.372Z" fill="white"/>
<path d="M563.908 381.371H399.959V382.918H563.908V381.371Z" fill="white"/>
<path d="M563.908 389.37H399.959V390.917H563.908V389.37Z" fill="white"/>
<path d="M563.908 397.381H399.959V398.916H563.908V397.381Z" fill="white"/>
<path d="M563.908 405.38H399.959V406.915H563.908V405.38Z" fill="white"/>
<path d="M563.908 413.38H399.959V414.914H563.908V413.38Z" fill="white"/>
<path d="M563.908 421.379H399.959V422.913H563.908V421.379Z" fill="white"/>
<path d="M563.908 429.378H399.959V430.924H563.908V429.378Z" fill="white"/>
<path d="M563.92 437.353C563.892 437.868 563.892 438.384 563.92 438.899H399.959V437.353H563.92ZM561.515 445.376C561.515 445.896 560.851 446.403 560.802 446.923H400.72C400.558 446.416 400.429 445.899 400.333 445.376H561.515ZM410.374 350.921H39.5223C39.921 350.402 40.3318 349.882 40.7305 349.375H407.426C408.441 349.882 409.419 350.353 410.374 350.921ZM407.039 358.92H35.1363C35.3296 358.401 35.535 357.893 35.7525 357.374H405.577C406.093 357.862 406.581 358.378 407.039 358.92ZM411.147 366.92H33.4326C33.4326 366.4 33.5172 365.892 33.5776 365.385H410.785C410.935 365.889 411.056 366.401 411.147 366.92Z" fill="white"/>
<path d="M411.316 373.372H33.3481V374.907H411.316V373.372Z" fill="white"/>
<path d="M411.316 381.371H33.3481V382.906H411.316V381.371Z" fill="white"/>
<path d="M411.316 389.37H33.3481V390.917H411.316V389.37Z" fill="white"/>
<path d="M411.316 397.381H33.3481V398.916H411.316V397.381Z" fill="white"/>
<path d="M411.316 405.393H33.3481V406.915H411.316V405.393Z" fill="white"/>
<path d="M411.316 413.38H33.3481V414.902H411.316V413.38Z" fill="white"/>
<path d="M411.316 421.379H33.3481V422.913H411.316V421.379Z" fill="white"/>
<path d="M411.316 429.378H33.3481V430.924H411.316V429.378Z" fill="white"/>
<path d="M410.809 437.353C410.648 437.878 410.459 438.395 410.241 438.899H33.8072C33.7226 438.392 33.638 437.884 33.5776 437.353H410.809ZM405.625 445.388C405.085 445.93 404.517 446.442 403.922 446.923H36.4533C36.1996 446.415 35.9579 445.896 35.7404 445.388H405.625Z" fill="white"/>
<path opacity="0.2" d="M424.498 322.562C419.049 329.111 412.005 335.696 409.214 337.159C393.337 345.52 374.948 351.985 365.632 367.27C353.839 386.603 361.463 411.893 356.05 433.909C355.06 437.921 353.525 442.017 350.42 444.784C347.315 447.551 342.325 448.493 339.026 445.992C336.126 443.805 335.401 439.842 334.858 436.253C330.096 402.377 329.917 368.013 334.326 334.089C316.202 342.185 303.938 359.271 294.26 376.55C284.582 393.829 276.462 412.353 262.978 426.864C259.148 430.973 254.109 434.996 248.551 434.199C241.87 425.741 245.374 413.38 249.168 403.254C256.768 382.918 264.392 362.533 274.179 343.14C277.344 336.856 280.86 330.549 286.177 325.933C287.632 324.674 289.201 323.554 290.865 322.586L424.498 322.562Z" fill="#3F3D56"/>
<path d="M556.525 453.387C556.114 453.931 555.655 454.354 555.196 454.922H42.1321C41.6488 454.426 41.1775 453.907 40.7305 453.387H556.525Z" fill="white"/>
<path d="M153.135 648.942H91.1394C71.2635 643.94 61.6336 622.444 61.6336 622.444C61.6336 622.444 59.8333 517.32 61.6336 504.028C63.4339 490.737 93.5438 481.191 93.5438 481.191H153.135C133.259 484.042 118.821 503.424 118.821 503.424C118.821 503.424 117.612 619.604 118.821 627.422C120.029 635.24 153.135 648.942 153.135 648.942Z" fill="url(#paint13_linear_50_2219)"/>
<path d="M153.135 648.942H133.259C113.408 643.94 103.778 622.444 103.778 622.444C103.778 622.444 101.965 517.32 103.778 504.028C105.59 490.737 135.676 481.191 135.676 481.191H153.135C133.259 484.042 118.821 503.424 118.821 503.424C118.821 503.424 117.612 619.604 118.821 627.422C120.029 635.24 153.135 648.942 153.135 648.942Z" fill="url(#paint14_linear_50_2219)"/>
<path d="M239.478 398.505L233.702 408.534L247.114 414.37L252.66 404.825L239.478 398.505Z" fill="url(#paint15_linear_50_2219)"/>
<path d="M329.65 425.439L329.022 436.616L343.642 435.77L344.258 425.439H329.65Z" fill="url(#paint16_linear_50_2219)"/>
<path d="M236.336 406.311C236.04 405.703 235.63 405.157 235.128 404.704C234.533 404.311 233.854 404.063 233.146 403.979L209.935 399.315C209.098 399.108 208.236 399.015 207.374 399.037C205.151 399.182 203.326 400.813 201.864 402.493C201.026 403.285 200.488 404.344 200.342 405.489C200.427 406.207 200.66 406.9 201.026 407.524C201.392 408.148 201.883 408.689 202.468 409.114C204.099 410.627 205.814 412.047 207.603 413.368C211.043 415.78 214.621 417.987 218.321 419.977C220.81 421.379 223.299 422.78 225.848 424.061C230.041 426.164 234.391 427.928 238.765 429.644C238.909 429.734 239.069 429.795 239.237 429.822C239.404 429.85 239.576 429.844 239.741 429.804C239.906 429.765 240.062 429.693 240.2 429.593C240.337 429.493 240.453 429.366 240.541 429.221C243.705 425.921 246.2 422.039 247.887 417.79C248.31 416.739 249.095 414.431 247.887 413.561C247.464 413.259 246.268 413.307 245.736 413.186C244.944 412.995 244.168 412.74 243.416 412.425C240.471 411.184 237.993 409.044 236.336 406.311ZM330.508 431.541C329.946 431.166 329.319 430.899 328.659 430.755C327.948 430.714 327.236 430.838 326.581 431.118L304.18 438.766C303.352 439.008 302.56 439.357 301.824 439.806C299.975 441.014 299.214 443.431 298.791 445.569C298.468 446.675 298.541 447.859 298.996 448.916C299.426 449.489 299.97 449.967 300.594 450.318C301.218 450.67 301.909 450.888 302.621 450.958C304.789 451.448 306.984 451.811 309.194 452.046C313.376 452.408 317.577 452.517 321.772 452.372C324.636 452.372 327.487 452.3 330.339 452.118C335.027 451.828 339.679 451.164 344.306 450.451C344.642 450.464 344.969 450.345 345.218 450.119C345.467 449.893 345.616 449.578 345.635 449.243C346.709 444.797 346.918 440.186 346.251 435.661C346.082 434.537 345.563 432.169 344.101 432.036C343.581 431.976 342.578 432.628 342.059 432.785C341.27 433.027 340.461 433.197 339.642 433.293C336.489 433.69 333.291 433.077 330.508 431.541Z" fill="#3F3D56"/>
<path d="M421.2 280.814C421.2 280.814 417.406 316.327 384.674 322.586C362.515 326.827 335.413 325.317 320.238 323.903C316.649 323.572 313.039 324.24 309.806 325.833C306.573 327.426 303.844 329.882 301.92 332.929L254.798 407.99L241.145 401.393H241.036L236.203 399.073L275.447 307.506C277.752 301.818 281.291 296.713 285.809 292.559C290.326 288.405 295.709 285.305 301.57 283.485L346.65 269.529L357.186 266.266C357.186 266.266 399.379 262.013 421.2 280.814Z" fill="#3F3D56"/>
<path opacity="0.24" d="M346.686 269.48L349.647 275.752C349.647 275.752 297.691 290.976 291.312 298.383C282.794 308.292 241.157 401.393 241.157 401.393H241.048L236.215 399.073L275.459 307.506C277.764 301.818 281.303 296.713 285.821 292.559C290.338 288.405 295.721 285.306 301.582 283.485L346.686 269.48Z" fill="white"/>
<path d="M365.137 274.652C365.137 274.652 323.403 315.312 322.05 337.062C320.697 358.812 326.533 427.009 326.533 427.009H346.783C346.783 427.009 345.78 344.215 354.033 343.635C362.285 343.055 399.693 319.01 405.698 312.11C411.703 305.21 421.285 280.79 421.285 280.79L365.137 274.652Z" fill="#3F3D56"/>
<path d="M421.2 280.814C421.2 280.814 387.743 297.888 353.006 277.914C349.975 276.174 347.065 274.233 344.294 272.102C344.294 272.102 358.938 245.942 347.279 207.94C342.288 191.688 342.18 160.659 366.889 156.236H367.009C391.585 151.874 390.196 157.94 390.196 157.94L401.312 168.742C422.686 186.13 425.03 212.677 421.2 280.814Z" fill="#68E1FD"/>
<path opacity="0.24" d="M367.009 156.212C365.979 158.447 364.384 160.376 362.382 161.807C362.382 161.807 347.689 168.319 350.625 189.864C353.562 211.408 358.938 252.842 358.938 252.842L353.006 277.914C349.975 276.174 347.065 274.233 344.294 272.102C344.294 272.102 358.938 245.942 347.279 207.94C342.288 191.688 342.18 160.659 366.889 156.236L367.009 156.212Z" fill="white"/>
<path d="M389.109 154.835C387.773 156.428 386.129 157.735 384.275 158.675C382.421 159.616 380.395 160.17 378.321 160.306C376.246 160.441 374.166 160.155 372.205 159.464C370.244 158.773 368.444 157.691 366.913 156.285C366.913 156.285 348.789 174.409 367.106 176.596C376.772 177.805 388.674 166.108 392.117 159.499L389.109 154.835Z" fill="#3F3D56"/>
<path d="M394.546 137.858C394.473 138.099 391.066 148.527 388.504 155.982C386.604 161.794 382.571 166.669 377.219 169.624C374.078 171.52 370.584 172.753 366.949 173.249C366.08 173.329 365.207 173.167 364.424 172.781C363.642 172.395 362.981 171.801 362.515 171.064C362.049 170.326 361.795 169.474 361.783 168.602C361.77 167.73 361.998 166.871 362.442 166.12C363.288 164.634 364.206 162.918 365.052 161.094C366.816 157.3 368.29 153.083 368.049 149.748C368.049 149.627 368.049 149.494 368.049 149.385C367.831 147.645 368.967 146.11 370.876 144.769C373.57 142.896 377.811 141.422 381.956 140.311C386.103 139.259 390.307 138.44 394.546 137.858Z" fill="url(#paint17_linear_50_2219)"/>
<path d="M367.686 160.949C366.855 161.116 366.007 161.177 365.161 161.13C366.925 157.336 368.399 153.119 368.157 149.784L370.96 144.805L373.051 141.108L382.04 140.347L391.126 139.586C385.133 153.759 375.068 159.632 367.686 160.949Z" fill="url(#paint18_linear_50_2219)"/>
<path d="M384.565 90.1772C381.278 89.488 377.883 89.4863 374.594 90.1723C371.306 90.8582 368.195 92.217 365.457 94.1632C362.719 96.1093 360.413 98.6008 358.684 101.481C356.955 104.361 355.84 107.568 355.41 110.9C353.552 120.665 353.474 130.686 355.181 140.48C359.325 155.644 381.593 150.146 386.112 145.543C390.631 140.939 408.791 119.721 405.819 111.468C403.922 105.861 397.276 93.053 384.565 90.1772Z" fill="url(#paint19_linear_50_2219)"/>
<path d="M366.623 75.3873L370.054 78.4806C367.696 77.7854 365.207 77.6606 362.791 78.1165C360.375 78.5723 358.102 79.5959 356.159 81.1027C351.525 83.7556 348.122 88.127 346.687 93.2705L354.311 91.9051C354.311 91.9051 351.532 100.11 364.17 104.206C376.808 108.302 390.22 112.495 390.22 112.495L387.514 105.245C387.514 105.245 394.606 110.586 395.198 113.921C395.176 118.979 394.772 124.028 393.99 129.025C393.99 129.025 399.403 121.654 400.225 123.805C401.046 125.956 396.334 132.686 394.183 133.882C392.033 135.079 391.018 140.045 390.752 140.407C390.486 140.77 400.418 136.251 401.397 134.027C402.375 131.804 416.766 110.646 412.839 104.315L416.089 104.931C414.542 103.152 412.619 101.741 410.459 100.798C410.459 100.798 396.962 67.6057 366.623 75.3873Z" fill="#3F3D56"/>
<path d="M361.838 253.808C360.014 251.984 358.213 249.809 355.664 249.374C354.77 251.5 356.594 253.688 357.368 255.85C357.484 256.092 357.545 256.356 357.545 256.624C357.545 256.892 357.484 257.156 357.368 257.397C357.005 257.977 356.159 258.013 355.495 257.965C352.271 257.734 349.108 256.975 346.131 255.718C343.376 254.509 340.73 252.95 337.745 252.648C337.426 252.584 337.095 252.627 336.803 252.769C336.078 253.228 336.501 254.34 337.02 255.017C338.129 256.478 339.389 257.818 340.778 259.016C338.672 258.086 336.426 257.511 334.133 257.313C333.492 257.313 332.622 257.445 332.634 258.086C332.676 258.349 332.803 258.591 332.997 258.775C334.695 260.719 336.745 262.326 339.038 263.511C337.371 263.159 335.666 263.017 333.963 263.088C333.226 263.088 332.248 263.475 332.356 264.2C332.41 264.436 332.527 264.653 332.695 264.828C334.737 267.299 337.499 269.069 340.597 269.891L335.764 270C335.459 269.985 335.156 270.047 334.882 270.181C334.012 270.737 334.773 272.102 335.619 272.694C339.34 275.292 344.077 275.752 348.632 276.078C357.343 276.706 366.514 277.044 374.368 273.202C374.936 272.912 375.576 272.525 375.685 271.897C375.709 271.568 375.659 271.238 375.54 270.93C374.585 267.752 374.102 261.989 371.214 260.055C369.813 259.125 368.085 258.593 366.647 257.639C365.209 256.684 363.481 254.63 361.838 253.808Z" fill="url(#paint20_linear_50_2219)"/>
<path d="M428.292 247.066C425.562 273.903 376.869 277.189 376.869 277.189L371.855 259.947L370.973 256.914C370.973 256.914 397.023 253.627 402.001 245.471C406.979 237.315 386.487 209.97 398.871 194.721C411.256 179.472 414.071 184.161 414.071 184.161C414.071 184.161 430.999 220.229 428.292 247.066Z" fill="#68E1FD"/>
<path d="M297.655 206.95C297.655 206.95 297.655 207.952 297.45 209.463C297.039 213.221 295.867 220.096 292.75 222.597C288.364 226.114 287.76 220.99 287.856 218.972C287.953 217.865 288.135 216.766 288.4 215.686C289.415 211.312 294.792 208.315 296.858 207.324L297.655 206.95Z" fill="url(#paint21_linear_50_2219)"/>
<path d="M297.45 209.463C297.039 213.221 295.867 220.096 292.75 222.597C291.397 221.619 289.657 220.314 287.856 218.972C285.44 217.16 282.866 215.251 281.042 213.922C279.419 212.833 277.941 211.541 276.644 210.079C275.512 208.591 274.571 206.967 273.84 205.246L270.095 197.102C268.887 194.431 267.678 190.903 269.829 188.837C270.373 188.305 275.327 187.338 275.653 186.638C276.559 184.632 270.82 180.391 271.182 178.179C271.362 177.577 271.747 177.057 272.27 176.708C272.792 176.359 273.421 176.205 274.046 176.27C275.254 176.331 278.686 179.484 279.761 180.125C281.887 181.333 280.099 183.049 282.177 184.306C284.874 185.69 287.324 187.511 289.427 189.695C291.771 192.438 292.955 195.954 294.079 199.361C294.9 201.863 296 204.569 296.846 207.264C297.075 208.037 297.281 208.75 297.45 209.463Z" fill="url(#paint22_linear_50_2219)"/>
<path d="M279.676 190.202L271.617 151.983L268.633 137.858L315.465 150.412L329.058 241.846L285.536 228.579L279.676 190.202Z" fill="#68E1FD"/>
<path d="M289.427 189.743L270.892 148.563L285.536 228.579L329.058 241.846L324.394 210.49L289.427 189.743Z" fill="url(#paint23_linear_50_2219)"/>
<path d="M282.347 206.684C283.821 205.947 286.841 204.605 287.602 203.143C287.784 202.793 288.05 202.334 287.82 202.02C286.769 200.57 282.443 202.418 281.211 202.02C282.057 200.63 289.596 196.413 286.044 195.458C285.283 195.253 280.558 197.645 279.797 197.428C280.389 196.945 285.246 193.489 286.08 192.595C286.321 192.328 286.464 191.988 286.486 191.63C286.508 191.271 286.407 190.916 286.2 190.623C285.994 190.329 285.694 190.114 285.349 190.014C285.005 189.913 284.636 189.933 284.304 190.069C281.731 191.251 279.093 192.284 276.402 193.163C276.921 192.305 283.941 188.329 284.219 187.314C284.363 186.949 284.389 186.547 284.292 186.166C284.193 185.953 284.05 185.762 283.873 185.606C283.697 185.45 283.489 185.332 283.265 185.26C281.307 184.499 279.108 185.26 277.151 186.046L272.511 187.882C271.025 188.462 269.382 189.211 268.887 190.71C268.669 191.468 268.632 192.267 268.778 193.042C269.355 197.913 271.1 202.572 273.865 206.623C275.242 208.629 279.592 213.475 282.093 213.946C284.316 214.369 280.28 207.771 282.347 206.684Z" fill="url(#paint24_linear_50_2219)"/>
<path opacity="0.24" d="M330.798 330.549C330.798 330.549 346.771 293.949 365.233 283.533L358.938 280.984C358.938 280.984 326.521 315.457 322.69 333.195C318.86 350.933 326.545 427.046 326.545 427.046H331.861C331.861 427.046 323.077 338.016 330.798 330.549ZM403.414 251.271C393.132 255.5 375.624 259.185 371.855 259.959L371.13 260.104L370.973 256.926C370.973 256.926 397.023 253.639 402.001 245.483C406.979 237.327 386.487 209.982 398.871 194.733C398.871 194.733 397.301 208.218 401.372 218.187C405.444 228.156 414.965 246.51 403.414 251.271Z" fill="white"/>
</g>
<defs>
<linearGradient id="paint0_linear_50_2219" x1="397.808" y1="856.701" x2="202.074" y2="-227.935" gradientUnits="userSpaceOnUse">
<stop offset="0.02" stop-color="#68E1FD"/>
<stop offset="1" stop-color="white" stop-opacity="0"/>
</linearGradient>
<linearGradient id="paint1_linear_50_2219" x1="600.711" y1="317.837" x2="675.762" y2="432.202" gradientUnits="userSpaceOnUse">
<stop stop-color="white" stop-opacity="0"/>
<stop offset="0.99" stop-color="white"/>
</linearGradient>
<linearGradient id="paint2_linear_50_2219" x1="186988" y1="53479.3" x2="187069" y2="28504.8" gradientUnits="userSpaceOnUse">
<stop stop-color="white" stop-opacity="0"/>
<stop offset="0.99" stop-color="white"/>
</linearGradient>
<linearGradient id="paint3_linear_50_2219" x1="388.106" y1="254.292" x2="287.521" y2="496.231" gradientUnits="userSpaceOnUse">
<stop offset="0.17" stop-color="#00272E"/>
<stop offset="1" stop-color="#69B9EB" stop-opacity="0"/>
</linearGradient>
<linearGradient id="paint4_linear_50_2219" x1="120491" y1="11609.1" x2="120497" y2="14564.6" gradientUnits="userSpaceOnUse">
<stop offset="0.17" stop-color="#00272E"/>
<stop offset="1" stop-color="#69B9EB" stop-opacity="0"/>
</linearGradient>
<linearGradient id="paint5_linear_50_2219" x1="121966" y1="8111.3" x2="121961" y2="9434.7" gradientUnits="userSpaceOnUse">
<stop stop-color="white" stop-opacity="0"/>
<stop offset="0.99" stop-color="white"/>
</linearGradient>
<linearGradient id="paint6_linear_50_2219" x1="340.766" y1="563.997" x2="544.696" y2="566.244" gradientUnits="userSpaceOnUse">
<stop offset="0.18" stop-color="#00272E"/>
<stop offset="1" stop-color="#69B9EB" stop-opacity="0"/>
</linearGradient>
<linearGradient id="paint7_linear_50_2219" x1="690.751" y1="576.382" x2="388.166" y2="551.433" gradientUnits="userSpaceOnUse">
<stop stop-color="#68E1FD"/>
<stop offset="1" stop-color="white"/>
</linearGradient>
<linearGradient id="paint8_linear_50_2219" x1="92355.5" y1="40369.4" x2="69600.6" y2="37767" gradientUnits="userSpaceOnUse">
<stop stop-color="#68E1FD"/>
<stop offset="1" stop-color="white"/>
</linearGradient>
<linearGradient id="paint9_linear_50_2219" x1="163995" y1="39858.7" x2="21862.8" y2="39858.7" gradientUnits="userSpaceOnUse">
<stop stop-color="white" stop-opacity="0"/>
<stop offset="0.99" stop-color="white"/>
</linearGradient>
<linearGradient id="paint10_linear_50_2219" x1="551.958" y1="468.117" x2="555.112" y2="468.117" gradientUnits="userSpaceOnUse">
<stop stop-color="#68E1FD"/>
<stop offset="1" stop-color="#69B9EB"/>
</linearGradient>
<linearGradient id="paint11_linear_50_2219" x1="1492.22" y1="1047.62" x2="1494.59" y2="1047.62" gradientUnits="userSpaceOnUse">
<stop stop-color="#68E1FD"/>
<stop offset="1" stop-color="#69B9EB"/>
</linearGradient>
<linearGradient id="paint12_linear_50_2219" x1="871.635" y1="862.206" x2="871.89" y2="862.206" gradientUnits="userSpaceOnUse">
<stop stop-color="#68E1FD"/>
<stop offset="1" stop-color="#69B9EB"/>
</linearGradient>
<linearGradient id="paint13_linear_50_2219" x1="15452.1" y1="95455.4" x2="25335.4" y2="62273.3" gradientUnits="userSpaceOnUse">
<stop stop-color="white" stop-opacity="0"/>
<stop offset="0.99" stop-color="white"/>
</linearGradient>
<linearGradient id="paint14_linear_50_2219" x1="135.736" y1="486.06" x2="117.079" y2="717.2" gradientUnits="userSpaceOnUse">
<stop offset="0.02" stop-color="#68E1FD"/>
<stop offset="1" stop-color="white"/>
</linearGradient>
<linearGradient id="paint15_linear_50_2219" x1="254.75" y1="407.386" x2="226.863" y2="405.079" gradientUnits="userSpaceOnUse">
<stop stop-color="#ECC4D7"/>
<stop offset="0.42" stop-color="#EFD4D1"/>
<stop offset="1" stop-color="#F2EAC9"/>
</linearGradient>
<linearGradient id="paint16_linear_50_2219" x1="10407.9" y1="-11517.8" x2="10083.1" y2="-11396.7" gradientUnits="userSpaceOnUse">
<stop stop-color="#ECC4D7"/>
<stop offset="0.42" stop-color="#EFD4D1"/>
<stop offset="1" stop-color="#F2EAC9"/>
</linearGradient>
<linearGradient id="paint17_linear_50_2219" x1="1472.63" y1="28290.3" x2="2094.19" y2="28456.9" gradientUnits="userSpaceOnUse">
<stop stop-color="#ECC4D7"/>
<stop offset="0.42" stop-color="#EFD4D1"/>
<stop offset="1" stop-color="#F2EAC9"/>
</linearGradient>
<linearGradient id="paint18_linear_50_2219" x1="3043.31" y1="17178.9" x2="2040.62" y2="18311.4" gradientUnits="userSpaceOnUse">
<stop stop-color="#ECC4D7"/>
<stop offset="0.42" stop-color="#EFD4D1"/>
<stop offset="1" stop-color="#F2EAC9"/>
</linearGradient>
<linearGradient id="paint19_linear_50_2219" x1="566.563" y1="46814" x2="2663.17" y2="47375.8" gradientUnits="userSpaceOnUse">
<stop stop-color="#ECC4D7"/>
<stop offset="0.42" stop-color="#EFD4D1"/>
<stop offset="1" stop-color="#F2EAC9"/>
</linearGradient>
<linearGradient id="paint20_linear_50_2219" x1="16259.8" y1="6146.11" x2="17813.7" y2="6146.11" gradientUnits="userSpaceOnUse">
<stop stop-color="#ECC4D7"/>
<stop offset="0.42" stop-color="#EFD4D1"/>
<stop offset="1" stop-color="#F2EAC9"/>
</linearGradient>
<linearGradient id="paint21_linear_50_2219" x1="287.856" y1="215.372" x2="297.655" y2="215.372" gradientUnits="userSpaceOnUse">
<stop stop-color="#183866"/>
<stop offset="1" stop-color="#1A7FC1"/>
</linearGradient>
<linearGradient id="paint22_linear_50_2219" x1="9335.99" y1="7828.23" x2="10023" y2="7828.23" gradientUnits="userSpaceOnUse">
<stop stop-color="#ECC4D7"/>
<stop offset="0.42" stop-color="#EFD4D1"/>
<stop offset="1" stop-color="#F2EAC9"/>
</linearGradient>
<linearGradient id="paint23_linear_50_2219" x1="19296.3" y1="13407.7" x2="25165.6" y2="22257.5" gradientUnits="userSpaceOnUse">
<stop stop-color="white" stop-opacity="0"/>
<stop offset="0.99" stop-color="white"/>
</linearGradient>
<linearGradient id="paint24_linear_50_2219" x1="6318.52" y1="4976.4" x2="6625.25" y2="4976.4" gradientUnits="userSpaceOnUse">
<stop stop-color="#ECC4D7"/>
<stop offset="0.42" stop-color="#EFD4D1"/>
<stop offset="1" stop-color="#F2EAC9"/>
</linearGradient>
<clipPath id="clip0_50_2219">
<rect width="977" height="722.13" fill="white" transform="translate(-110)"/>
</clipPath>
</defs>
</svg>
